<svg id="Layer_1" height="512" viewBox="0 0 512 512" width="512" xmlns="http://www.w3.org/2000/svg" data-name="Layer 1"><path d="m376.9 307.87h77.9v56.86h-77.9z" fill="#d4e1f4"/><path d="m454.8 364.73v27.82a38.95 38.95 0 0 1 -77.9 0v-27.82z" fill="#c64f94"/><path d="m339.13 364.73v27.82a38.945 38.945 0 0 1 -77.89 0v-27.82z" fill="#c64f94"/><path d="m261.24 307.87h77.89v56.86h-77.89z" fill="#d4e1f4"/><path d="m200.22 247.91v243.98a4 4 0 0 1 -4 4h-135.02a4.005 4.005 0 0 1 -4-4v-243.98a69.522 69.522 0 0 1 46.34-65.55v-70.67h50.34v70.67a69.535 69.535 0 0 1 46.34 65.55z" fill="#786e96"/><path d="m95.22 302.26h67.51v127.64h-67.51z" fill="#ed6337"/><path d="m152.15 16.11-3 44.39h-40.87l-3-44.39z" fill="#c1917c"/><path d="m83.2 491.89v-243.98a69.522 69.522 0 0 1 46.34-65.55v-70.67h-26v70.67a69.522 69.522 0 0 0 -46.34 65.55v243.98a4.005 4.005 0 0 0 4 4h26a4.005 4.005 0 0 1 -4-4z" fill="#a39dc6"/><path d="m134.28 60.5-3-44.39h-26l3 44.39z" fill="#e0b09d"/><path d="m95.22 302.26h30v127.64h-30z" fill="#f28668"/><path d="m104 60h50v52h-50z" fill="#4a5160"/><path d="m104 60h26v52h-26z" fill="#78818e"/><path d="m376.9 307.87h30v56.86h-30z" fill="#bacce2"/><path d="m406.9 392.55v-27.82h-30v27.82a38.966 38.966 0 0 0 53.95 35.944 38.947 38.947 0 0 1 -23.95-35.944z" fill="#9e397d"/><path d="m291.24 392.55v-27.82h-30v27.82a38.957 38.957 0 0 0 53.941 35.943 38.941 38.941 0 0 1 -23.941-35.943z" fill="#9e397d"/><path d="m261.24 307.87h30v56.86h-30z" fill="#bacce2"/><g fill="#284268"><path d="m206 491.892v-243.981a75.43 75.43 0 0 0 -46-69.662v-118.749a6.051 6.051 0 0 0 -4.384-5.758l2.544-37.22a6.115 6.115 0 0 0 -6.015-6.522h-46.864a6.09 6.09 0 0 0 -5.981 6.5l2.8 37.233a5.82 5.82 0 0 0 -4.1 5.767v118.75c-28 11.669-47 39.141-47 69.661v243.981a10.281 10.281 0 0 0 10.205 10.108h135.017a9.917 9.917 0 0 0 9.778-10.108zm-60.284-469.892-2.171 32h-29.664l-2.171-32zm-35.716 44h38v40h-38zm84 424h-131v-242.089a63.9 63.9 0 0 1 42.667-59.889 6.315 6.315 0 0 0 4.333-5.657v-64.365h38v64.365a5.948 5.948 0 0 0 3.95 5.66 63.386 63.386 0 0 1 42.05 59.886z"/><path d="m79 279.7a6 6 0 0 0 -6 6v4.2a6 6 0 0 0 12 0v-4.2a6 6 0 0 0 -6-6z"/><path d="m107.626 210.982a6.019 6.019 0 0 0 2.644-8.079 6.091 6.091 0 0 0 -8.157-2.592 53.383 53.383 0 0 0 -29.113 47.6v21.589a6 6 0 0 0 12 0v-21.589a41.453 41.453 0 0 1 22.626-36.929z"/><path d="m162.73 296h-67.508a6.24 6.24 0 0 0 -6.222 6.222v32.778a6 6 0 0 0 12 0v-27h56v116h-56v-55a6 6 0 0 0 -12 0v60.9a6.12 6.12 0 0 0 6.1 6.1h67.8a6.12 6.12 0 0 0 6.1-6.1v-127.63a6.288 6.288 0 0 0 -6.27-6.27z"/><path d="m294 437.081v52.919h-28.559a6 6 0 0 0 0 12h69.481a6 6 0 0 0 0-12h-28.922v-52.919a45.013 45.013 0 0 0 39-44.534v-84.682a5.778 5.778 0 0 0 -5.872-5.865h-77.893a6.092 6.092 0 0 0 -6.235 5.865v84.682a45.013 45.013 0 0 0 39 44.534zm-27-66.081h5a6 6 0 0 0 0-12h-5v-45h66v45h-27a6 6 0 0 0 0 12h27v21.547a33 33 0 0 1 -66 0z"/><path d="m454.8 302h-77.9a5.8 5.8 0 0 0 -5.9 5.865v84.682a45.013 45.013 0 0 0 39 44.534v52.919h-28.892a6 6 0 1 0 0 12h69.481a6 6 0 0 0 0-12h-28.589v-52.919a45.013 45.013 0 0 0 39-44.534v-84.682a6.066 6.066 0 0 0 -6.2-5.865zm-5.8 90.547a33 33 0 0 1 -66 0v-21.547h66zm0-33.547h-66v-45h66z"/></g></svg>