<svg id="Layer_1" height="512" viewBox="0 0 512 512" width="512" xmlns="http://www.w3.org/2000/svg" data-name="Layer 1"><g fill="#b0b5ca"><path d="m385.19 43.4h38.75v34.07h-38.75z"/><path d="m236.63 43.4h38.74v34.07h-38.74z"/><path d="m88.06 43.4h38.75v34.07h-38.75z"/></g><path d="m445.82 166.97c-1.11-1.11-2.31-2.17-3.51-3.19a52 52 0 0 1 -18.31-39.6v-47.18h-39v47.9a51.408 51.408 0 0 1 -18.455 38.94 58.087 58.087 0 0 0 -20.545 44.24v73.92h117v-73.92a58.123 58.123 0 0 0 -17.18-41.11z" fill="#495c7f"/><path d="m296.948 166.97c-1.11-1.11-2.3-2.17-3.493-3.19a52.138 52.138 0 0 1 -18.455-39.6v-47.18h-38v47.9a51.408 51.408 0 0 1 -18.455 38.94 58.087 58.087 0 0 0 -20.545 44.24v73.92h116v-73.92a58.011 58.011 0 0 0 -17.052-41.11z" fill="#495c7f"/><path d="m148.807 166.97c-1.11-1.11-2.442-2.17-3.642-3.19a51.894 51.894 0 0 1 -18.165-39.6v-47.18h-39v47.9a51.4 51.4 0 0 1 -18.45 38.94 58.092 58.092 0 0 0 -20.55 44.24v73.92h117v-73.92a58.13 58.13 0 0 0 -17.193-41.11z" fill="#495c7f"/><path d="m30 347.6h452v61h-452z" fill="#c79a83"/><path d="m30 408.6h452v60h-452z" fill="#b6816b"/><path d="m404.56 224.44h58.12v57.16h-58.12z" fill="#fb6771"/><path d="m256 224.44h58.12v57.16h-58.12z" fill="#fb6771"/><path d="m107.44 224.44h58.12v57.16h-58.12z" fill="#fb6771"/><path d="m30 282h452v66h-452z" fill="#b6816b"/><path d="m79 208.08a58.092 58.092 0 0 1 20.55-44.24 51.4 51.4 0 0 0 18.45-38.94v-47.9h-30v47.9a51.4 51.4 0 0 1 -18.45 38.94 58.092 58.092 0 0 0 -20.55 44.24v73.92h30z" fill="#374a68"/><path d="m30 347.6h30v61h-30z" fill="#efc5b4"/><path d="m88.06 43.4h30v34.07h-30z" fill="#959db5"/><path d="m30 408.6h30v60h-30z" fill="#ddac97"/><path d="m30 282h30v66h-30z" fill="#ddac97"/><path d="m57.153 318h4.3a6 6 0 0 0 0-12h-4.3a6 6 0 0 0 0 12z" fill="#284268"/><path d="m80.448 318h88a6 6 0 0 0 0-12h-88a6 6 0 1 0 0 12z" fill="#284268"/><path d="m482 276h-13v-67.925a63.878 63.878 0 0 0 -18.919-45.342c-1.22-1.22-2.647-2.405-3.962-3.524a45.861 45.861 0 0 1 -16.119-35.03v-80.779a6.412 6.412 0 0 0 -6.064-6.4h-38.747a6.519 6.519 0 0 0 -6.189 6.4v81.5a45.43 45.43 0 0 1 -16.347 34.373 64.167 64.167 0 0 0 -22.653 48.802v67.925h-20v-67.925a63.683 63.683 0 0 0 -18.716-45.342c-1.22-1.22-2.661-2.405-3.976-3.524a46.041 46.041 0 0 1 -16.308-35.03v-80.779c0-3.313-2.313-6.4-5.627-6.4h-38.746c-3.314 0-5.627 3.089-5.627 6.4v81.5a45.43 45.43 0 0 1 -16.347 34.373 64.167 64.167 0 0 0 -22.653 48.802v67.925h-20v-67.925a63.954 63.954 0 0 0 -19-45.342c-1.221-1.22-2.522-2.406-3.836-3.524a45.91 45.91 0 0 1 -16.164-35.03v-80.779a6.519 6.519 0 0 0 -6.189-6.4h-38.747a6.412 6.412 0 0 0 -6.064 6.4v81.5a45.43 45.43 0 0 1 -16.347 34.373 64.167 64.167 0 0 0 -22.653 48.802v67.925h-13a6 6 0 0 0 -6 6v187a6 6 0 0 0 6 6h452a6 6 0 0 0 6-6v-187a6 6 0 0 0 -6-6zm-91-227h27v22h-27zm-39 159.075a52.189 52.189 0 0 1 18.439-39.675 57.4 57.4 0 0 0 20.561-43.5v-41.9h27v41.179a57.845 57.845 0 0 0 20.344 44.17c1.07.911 2.258 1.876 3.249 2.867a51.952 51.952 0 0 1 15.407 36.859v9.925h-52.438c-3.313 0-5.562 3.122-5.562 6.435v51.565h-47zm105 21.925v46h-46v-46zm-214-181h26v22h-26zm-39 159.075a52.189 52.189 0 0 1 18.439-39.675 57.4 57.4 0 0 0 20.561-43.5v-41.9h26v41.179a58.056 58.056 0 0 0 20.562 44.17c1.07.911 2.15 1.876 3.141 2.867a51.846 51.846 0 0 1 15.297 36.859v9.925h-52a6 6 0 0 0 -6 6v9a6 6 0 0 0 12 0v-3h46v46h-46v-9a6 6 0 0 0 -12 0v9h-46zm-110-159.075h27v22h-27zm-39 159.075a52.189 52.189 0 0 1 18.439-39.675 57.4 57.4 0 0 0 20.561-43.5v-41.9h27v41.179a57.789 57.789 0 0 0 20.281 44.171c1.07.909 2.29 1.874 3.281 2.866a51.982 51.982 0 0 1 15.438 36.859v9.925h-52.562a6.773 6.773 0 0 0 -6.438 6.435v51.565h-46zm105 21.925v46h-47v-46zm316 233h-440v-48h440zm0-121h-356a6 6 0 0 0 0 12h356v49h-440v-49h50a6 6 0 0 0 0-12h-50v-54h440z" fill="#284268"/></svg>